<svg width="84" height="166" viewBox="0 0 84 166" fill="none" xmlns="http://www.w3.org/2000/svg">
<g id="Journey">
<rect width="84" height="166" fill="white"/>
<path id="My journey..." d="M12.2397 15.1797L14.7964 21.5605L17.353 15.1797H18.6904V23H17.6592V19.9546L17.7559 16.6675L15.1885 23H14.3989L11.8369 16.6836L11.939 19.9546V23H10.9077V15.1797H12.2397ZM22.2568 21.5444L23.6104 17.1885H24.6738L22.3374 23.897C21.9757 24.8638 21.401 25.3472 20.6133 25.3472L20.4253 25.3311L20.0547 25.2612V24.4556L20.3232 24.4771C20.6598 24.4771 20.9212 24.409 21.1074 24.2729C21.2972 24.1369 21.453 23.888 21.5747 23.5264L21.7949 22.9355L19.7217 17.1885H20.8066L22.2568 21.5444ZM11.7778 30.1885V36.6714C11.7778 37.7886 11.2712 38.3472 10.2578 38.3472C10.0394 38.3472 9.83708 38.3149 9.65088 38.2505V37.4556C9.76546 37.4842 9.91585 37.4985 10.1021 37.4985C10.3241 37.4985 10.4924 37.4377 10.6069 37.3159C10.7251 37.1978 10.7842 36.9901 10.7842 36.6929V30.1885H11.7778ZM10.6821 28.647C10.6821 28.4894 10.7305 28.3551 10.8271 28.2441C10.9274 28.1296 11.0724 28.0723 11.2622 28.0723C11.4556 28.0723 11.6024 28.1278 11.7026 28.2388C11.8029 28.3498 11.853 28.4858 11.853 28.647C11.853 28.8081 11.8029 28.9424 11.7026 29.0498C11.6024 29.1572 11.4556 29.2109 11.2622 29.2109C11.0688 29.2109 10.9238 29.1572 10.8271 29.0498C10.7305 28.9424 10.6821 28.8081 10.6821 28.647ZM13.1206 33.0405C13.1206 32.4712 13.2316 31.9591 13.4536 31.5044C13.6792 31.0496 13.9907 30.6987 14.3882 30.4517C14.7892 30.2046 15.2458 30.0811 15.7578 30.0811C16.5492 30.0811 17.1883 30.355 17.6753 30.9028C18.1659 31.4507 18.4111 32.1794 18.4111 33.0889V33.1587C18.4111 33.7244 18.3019 34.2329 18.0835 34.6841C17.8687 35.1317 17.5589 35.4808 17.1543 35.7314C16.7533 35.9821 16.2913 36.1074 15.7686 36.1074C14.9808 36.1074 14.3416 35.8335 13.8511 35.2856C13.3641 34.7378 13.1206 34.0127 13.1206 33.1104V33.0405ZM14.1196 33.1587C14.1196 33.8032 14.2682 34.3206 14.5654 34.7109C14.8662 35.1012 15.2673 35.2964 15.7686 35.2964C16.2734 35.2964 16.6745 35.0994 16.9717 34.7056C17.2689 34.3081 17.4175 33.7531 17.4175 33.0405C17.4175 32.4032 17.2653 31.8875 16.9609 31.4937C16.6602 31.0962 16.2591 30.8975 15.7578 30.8975C15.2673 30.8975 14.8716 31.0926 14.5708 31.4829C14.27 31.8732 14.1196 32.4318 14.1196 33.1587ZM23.2451 35.4253C22.8584 35.88 22.2909 36.1074 21.5425 36.1074C20.923 36.1074 20.4504 35.9284 20.1245 35.5703C19.8022 35.2087 19.6393 34.6751 19.6357 33.9697V30.1885H20.6294V33.9429C20.6294 34.8237 20.9875 35.2642 21.7036 35.2642C22.4627 35.2642 22.9676 34.9813 23.2183 34.4155V30.1885H24.2119V36H23.2666L23.2451 35.4253ZM28.5356 31.0801C28.3853 31.055 28.2223 31.0425 28.0469 31.0425C27.3952 31.0425 26.953 31.32 26.7202 31.875V36H25.7266V30.1885H26.6934L26.7095 30.8599C27.0353 30.3407 27.4972 30.0811 28.0952 30.0811C28.2886 30.0811 28.4354 30.1061 28.5356 30.1562V31.0801ZM30.394 30.1885L30.4263 30.9189C30.8703 30.3604 31.4504 30.0811 32.1665 30.0811C33.3947 30.0811 34.0142 30.7739 34.0249 32.1597V36H33.0312V32.1543C33.0277 31.7354 32.931 31.4256 32.7412 31.2251C32.555 31.0246 32.2632 30.9243 31.8657 30.9243C31.5435 30.9243 31.2606 31.0103 31.0171 31.1821C30.7736 31.354 30.5838 31.5796 30.4478 31.8589V36H29.4541V30.1885H30.394ZM37.9351 36.1074C37.1473 36.1074 36.5063 35.8496 36.0122 35.334C35.5181 34.8148 35.271 34.1219 35.271 33.2554V33.0728C35.271 32.4963 35.3802 31.9824 35.5986 31.5312C35.8206 31.0765 36.1286 30.722 36.5225 30.4678C36.9199 30.21 37.3496 30.0811 37.8115 30.0811C38.5671 30.0811 39.1543 30.3299 39.5732 30.8276C39.9922 31.3254 40.2017 32.0379 40.2017 32.9653V33.3789H36.2646C36.279 33.9518 36.4455 34.4155 36.7642 34.77C37.0864 35.1209 37.4946 35.2964 37.9888 35.2964C38.3397 35.2964 38.6369 35.2248 38.8804 35.0815C39.1239 34.9383 39.3369 34.7485 39.5195 34.5122L40.1265 34.9849C39.6395 35.7332 38.909 36.1074 37.9351 36.1074ZM37.8115 30.8975C37.4105 30.8975 37.0739 31.0443 36.8018 31.3379C36.5296 31.6279 36.3613 32.0361 36.2969 32.5625H39.208V32.4873C39.1794 31.9824 39.0433 31.5921 38.7998 31.3164C38.5563 31.0371 38.2269 30.8975 37.8115 30.8975ZM43.1826 34.5444L44.5361 30.1885H45.5996L43.2632 36.897C42.9015 37.8638 42.3268 38.3472 41.5391 38.3472L41.3511 38.3311L40.9805 38.2612V37.4556L41.249 37.4771C41.5856 37.4771 41.847 37.409 42.0332 37.2729C42.223 37.1369 42.3787 36.888 42.5005 36.5264L42.7207 35.9355L40.6475 30.1885H41.7324L43.1826 34.5444ZM45.9326 35.479C45.9326 35.3071 45.9827 35.1639 46.083 35.0493C46.1868 34.9347 46.3408 34.8774 46.5449 34.8774C46.749 34.8774 46.903 34.9347 47.0068 35.0493C47.1143 35.1639 47.168 35.3071 47.168 35.479C47.168 35.6437 47.1143 35.7816 47.0068 35.8926C46.903 36.0036 46.749 36.0591 46.5449 36.0591C46.3408 36.0591 46.1868 36.0036 46.083 35.8926C45.9827 35.7816 45.9326 35.6437 45.9326 35.479ZM48.833 35.479C48.833 35.3071 48.8831 35.1639 48.9834 35.0493C49.0872 34.9347 49.2412 34.8774 49.4453 34.8774C49.6494 34.8774 49.8034 34.9347 49.9072 35.0493C50.0146 35.1639 50.0684 35.3071 50.0684 35.479C50.0684 35.6437 50.0146 35.7816 49.9072 35.8926C49.8034 36.0036 49.6494 36.0591 49.4453 36.0591C49.2412 36.0591 49.0872 36.0036 48.9834 35.8926C48.8831 35.7816 48.833 35.6437 48.833 35.479ZM51.7334 35.479C51.7334 35.3071 51.7835 35.1639 51.8838 35.0493C51.9876 34.9347 52.1416 34.8774 52.3457 34.8774C52.5498 34.8774 52.7038 34.9347 52.8076 35.0493C52.915 35.1639 52.9688 35.3071 52.9688 35.479C52.9688 35.6437 52.915 35.7816 52.8076 35.8926C52.7038 36.0036 52.5498 36.0591 52.3457 36.0591C52.1416 36.0591 51.9876 36.0036 51.8838 35.8926C51.7835 35.7816 51.7334 35.6437 51.7334 35.479Z" fill="black"/>
</g>
</svg>
