<svg width="84" height="166" viewBox="0 0 84 166" fill="none" xmlns="http://www.w3.org/2000/svg">
<g id="Journey">
<rect width="84" height="166" fill="white"/>
<rect id="Rectangle 1" width="84" height="166" fill="#C4C4C4"/>
<path id="My journey..." d="M10.803 22.692V15.597C10.803 15.5017 10.858 15.4247 10.968 15.366C11.0853 15.3 11.2137 15.267 11.353 15.267C11.507 15.267 11.6097 15.311 11.661 15.399L14.257 19.238L16.864 15.399C16.9153 15.311 17.007 15.267 17.139 15.267C17.271 15.267 17.3993 15.3 17.524 15.366C17.6487 15.432 17.711 15.509 17.711 15.597V22.692C17.711 22.7873 17.6707 22.8643 17.59 22.923C17.5093 22.9743 17.414 23 17.304 23C17.0327 23 16.897 22.8973 16.897 22.692V16.785L14.895 19.689C14.719 19.9457 14.5027 20.074 14.246 20.074C14.0113 20.074 13.8023 19.9457 13.619 19.689L11.617 16.785V22.692C11.617 22.7873 11.5767 22.8643 11.496 22.923C11.4153 22.9743 11.32 23 11.21 23C10.9387 23 10.803 22.8973 10.803 22.692ZM19.1126 20.756V17.786C19.1126 17.6907 19.1492 17.6173 19.2226 17.566C19.3032 17.5073 19.3949 17.478 19.4976 17.478C19.7689 17.478 19.9046 17.5807 19.9046 17.786V20.657C19.9046 20.9283 19.9779 21.1703 20.1246 21.383C20.2712 21.5957 20.4546 21.757 20.6746 21.867C20.9019 21.977 21.1219 22.0613 21.3346 22.12C21.5546 22.1713 21.7562 22.197 21.9396 22.197C22.4602 22.197 22.9516 22.0357 23.4136 21.713C23.8756 21.3903 24.2019 20.9613 24.3926 20.426V17.786C24.3926 17.588 24.5319 17.489 24.8106 17.489C24.9206 17.489 25.0122 17.5147 25.0856 17.566C25.1662 17.6173 25.2066 17.6907 25.2066 17.786V23.055C25.2066 23.4877 25.1076 23.8837 24.9096 24.243C24.7189 24.6097 24.4696 24.903 24.1616 25.123C23.8536 25.343 23.5199 25.5117 23.1606 25.629C22.8012 25.7463 22.4456 25.805 22.0936 25.805C21.4922 25.805 20.9019 25.6657 20.3226 25.387C19.7506 25.1083 19.4609 24.7343 19.4536 24.265C19.4536 24.1477 19.4902 24.056 19.5636 23.99C19.6442 23.9313 19.7396 23.902 19.8496 23.902C19.9669 23.902 20.0696 23.935 20.1576 24.001C20.2456 24.067 20.2896 24.1513 20.2896 24.254C20.2896 24.4887 20.4986 24.6683 20.9166 24.793C21.3346 24.925 21.7452 24.991 22.1486 24.991C22.4786 24.991 22.8049 24.9287 23.1276 24.804C23.4576 24.6867 23.7509 24.4777 24.0076 24.177C24.2642 23.8837 24.3926 23.5353 24.3926 23.132V21.856C23.7252 22.6187 22.8746 23 21.8406 23C21.1219 23 20.4876 22.7947 19.9376 22.384C19.3876 21.966 19.1126 21.4233 19.1126 20.756ZM7.921 36.946C7.921 36.8287 7.96133 36.737 8.042 36.671C8.11533 36.6123 8.207 36.583 8.317 36.583C8.43433 36.583 8.53333 36.616 8.614 36.682C8.69467 36.748 8.735 36.8323 8.735 36.935C8.735 37.3017 8.834 37.5583 9.032 37.705C9.23 37.8517 9.461 37.925 9.725 37.925C10.3483 37.925 10.66 37.5143 10.66 36.693V30.797C10.66 30.599 10.7993 30.5 11.078 30.5C11.188 30.5 11.2797 30.5257 11.353 30.577C11.4337 30.6283 11.474 30.7017 11.474 30.797V36.396C11.474 37.958 10.891 38.739 9.725 38.739C9.219 38.739 8.79367 38.585 8.449 38.277C8.10433 37.969 7.92833 37.5253 7.921 36.946ZM10.627 29.059V28.861C10.627 28.663 10.7663 28.564 11.045 28.564C11.155 28.564 11.2467 28.5897 11.32 28.641C11.4007 28.6923 11.441 28.7657 11.441 28.861V29.059C11.441 29.1543 11.4007 29.2313 11.32 29.29C11.2393 29.3413 11.144 29.367 11.034 29.367C10.7627 29.367 10.627 29.2643 10.627 29.059ZM12.5557 33.272C12.5557 32.6413 12.7207 32.0987 13.0507 31.644C13.388 31.182 13.7914 30.8483 14.2607 30.643C14.7374 30.4377 15.236 30.335 15.7567 30.335C16.49 30.335 17.1647 30.6137 17.7807 31.171C18.404 31.721 18.7157 32.4177 18.7157 33.261C18.7157 34.0603 18.4407 34.746 17.8907 35.318C17.3407 35.8827 16.622 36.165 15.7347 36.165C14.862 36.165 14.114 35.8827 13.4907 35.318C12.8674 34.746 12.5557 34.064 12.5557 33.272ZM13.3697 33.283C13.3697 33.8037 13.608 34.2803 14.0847 34.713C14.5614 35.1383 15.115 35.351 15.7457 35.351C16.3397 35.351 16.8457 35.1347 17.2637 34.702C17.689 34.2693 17.9017 33.789 17.9017 33.261C17.9017 32.7477 17.7 32.2673 17.2967 31.82C16.8934 31.3727 16.3727 31.149 15.7347 31.149C14.9867 31.149 14.4037 31.3763 13.9857 31.831C13.575 32.2857 13.3697 32.7697 13.3697 33.283ZM19.7139 33.756C19.7139 33.69 19.7139 33.3637 19.7139 32.777C19.7212 32.183 19.7249 31.5267 19.7249 30.808C19.7249 30.7127 19.7652 30.6393 19.8459 30.588C19.9265 30.5293 20.0219 30.5 20.1319 30.5C20.4032 30.5 20.5389 30.6027 20.5389 30.808V33.657C20.5389 34.1777 20.7222 34.5847 21.0889 34.878C21.4629 35.164 21.8479 35.307 22.2439 35.307C22.7425 35.307 23.2742 35.1273 23.8389 34.768C24.4109 34.4013 24.8069 33.9467 25.0269 33.404V30.797C25.0269 30.599 25.1662 30.5 25.4449 30.5C25.5549 30.5 25.6465 30.5257 25.7199 30.577C25.8005 30.6283 25.8409 30.7017 25.8409 30.797V35.703C25.8409 35.7983 25.8005 35.8717 25.7199 35.923C25.6465 35.9743 25.5549 36 25.4449 36C25.1662 36 25.0269 35.901 25.0269 35.703V34.801C24.6602 35.2043 24.2202 35.5233 23.7069 35.758C23.2009 35.9927 22.6802 36.11 22.1449 36.11C21.4555 36.11 20.8762 35.89 20.4069 35.45C19.9449 35.01 19.7139 34.4453 19.7139 33.756ZM27.149 35.692V30.819C27.149 30.621 27.2883 30.522 27.567 30.522C27.677 30.522 27.7687 30.5477 27.842 30.599C27.9227 30.6503 27.963 30.7237 27.963 30.819V32.194C28.2417 31.5927 28.5497 31.138 28.887 30.83C29.2317 30.522 29.6863 30.368 30.251 30.368C30.647 30.368 31.0467 30.4193 31.45 30.522C31.6627 30.6247 31.769 30.764 31.769 30.94C31.769 31.0647 31.7433 31.1527 31.692 31.204C31.6407 31.2553 31.5563 31.2883 31.439 31.303C31.065 31.215 30.7607 31.171 30.526 31.171C29.9833 31.171 29.4883 31.4387 29.041 31.974C28.5937 32.5093 28.2343 33.206 27.963 34.064V35.692C27.963 35.7873 27.9227 35.8643 27.842 35.923C27.7613 35.9743 27.666 36 27.556 36C27.2847 36 27.149 35.8973 27.149 35.692ZM32.5418 35.714V30.797C32.5418 30.7017 32.5785 30.6283 32.6518 30.577C32.7325 30.5257 32.8278 30.5 32.9378 30.5C33.2165 30.5 33.3558 30.599 33.3558 30.797V31.666C33.7225 31.27 34.1662 30.9583 34.6868 30.731C35.2075 30.4963 35.7355 30.379 36.2708 30.379C36.9602 30.379 37.5358 30.5953 37.9978 31.028C38.4672 31.4533 38.7018 32.0107 38.7018 32.7C38.7018 32.766 38.6982 33.1033 38.6908 33.712C38.6908 34.3133 38.6908 34.9733 38.6908 35.692C38.6908 35.7873 38.6505 35.8643 38.5698 35.923C38.4892 35.9743 38.3938 36 38.2838 36C38.0125 36 37.8768 35.8973 37.8768 35.692V32.799C37.8768 32.2783 37.6898 31.8787 37.3158 31.6C36.9492 31.3213 36.5678 31.182 36.1718 31.182C35.6365 31.182 35.0865 31.3617 34.5218 31.721C33.9645 32.073 33.5758 32.5203 33.3558 33.063V35.714C33.3558 35.912 33.2165 36.011 32.9378 36.011C32.8278 36.011 32.7325 35.9853 32.6518 35.934C32.5785 35.8827 32.5418 35.8093 32.5418 35.714ZM39.7012 33.096C39.7012 32.6267 39.8039 32.2087 40.0092 31.842C40.2145 31.4753 40.4859 31.1857 40.8232 30.973C41.1605 30.7603 41.5235 30.6027 41.9122 30.5C42.3009 30.39 42.6969 30.335 43.1002 30.335C43.8189 30.335 44.3762 30.4927 44.7722 30.808C45.1682 31.116 45.3662 31.4973 45.3662 31.952C45.3662 32.4433 45.1352 32.8613 44.6732 33.206C44.2112 33.5507 43.5549 33.723 42.7042 33.723C41.9415 33.723 41.2155 33.613 40.5262 33.393C40.6069 33.9357 40.8599 34.3903 41.2852 34.757C41.7105 35.1237 42.2349 35.307 42.8582 35.307C43.1882 35.307 43.5292 35.2557 43.8812 35.153C44.2405 35.0503 44.5229 34.9037 44.7282 34.713C44.7575 34.6543 44.8162 34.625 44.9042 34.625C45.0069 34.625 45.1169 34.6727 45.2342 34.768C45.3515 34.856 45.4102 34.9477 45.4102 35.043C45.2269 35.417 44.8675 35.692 44.3322 35.868C43.8042 36.0367 43.2909 36.121 42.7922 36.121C41.8902 36.121 41.1495 35.824 40.5702 35.23C39.9909 34.636 39.7012 33.9247 39.7012 33.096ZM40.5702 32.546C41.1202 32.788 41.8022 32.909 42.6162 32.909C43.2542 32.909 43.7382 32.81 44.0682 32.612C44.3982 32.4067 44.5632 32.1793 44.5632 31.93C44.5632 31.71 44.4239 31.5267 44.1452 31.38C43.8739 31.226 43.4669 31.149 42.9242 31.149C42.3375 31.149 41.8462 31.281 41.4502 31.545C41.0615 31.8017 40.7682 32.1353 40.5702 32.546ZM46.4299 33.756V30.786C46.4299 30.6907 46.4666 30.6173 46.5399 30.566C46.6206 30.5073 46.7123 30.478 46.8149 30.478C47.0863 30.478 47.2219 30.5807 47.2219 30.786V33.657C47.2219 33.9283 47.2953 34.1703 47.4419 34.383C47.5886 34.5957 47.7719 34.757 47.9919 34.867C48.2193 34.977 48.4393 35.0613 48.6519 35.12C48.8719 35.1713 49.0736 35.197 49.2569 35.197C49.7776 35.197 50.2689 35.0357 50.7309 34.713C51.1929 34.3903 51.5193 33.9613 51.7099 33.426V30.786C51.7099 30.588 51.8493 30.489 52.1279 30.489C52.2379 30.489 52.3296 30.5147 52.4029 30.566C52.4836 30.6173 52.5239 30.6907 52.5239 30.786V36.055C52.5239 36.4877 52.4249 36.8837 52.2269 37.243C52.0363 37.6097 51.7869 37.903 51.4789 38.123C51.1709 38.343 50.8373 38.5117 50.4779 38.629C50.1186 38.7463 49.7629 38.805 49.4109 38.805C48.8096 38.805 48.2193 38.6657 47.6399 38.387C47.0679 38.1083 46.7783 37.7343 46.7709 37.265C46.7709 37.1477 46.8076 37.056 46.8809 36.99C46.9616 36.9313 47.0569 36.902 47.1669 36.902C47.2843 36.902 47.3869 36.935 47.4749 37.001C47.5629 37.067 47.6069 37.1513 47.6069 37.254C47.6069 37.4887 47.8159 37.6683 48.2339 37.793C48.6519 37.925 49.0626 37.991 49.4659 37.991C49.7959 37.991 50.1223 37.9287 50.4449 37.804C50.7749 37.6867 51.0683 37.4777 51.3249 37.177C51.5816 36.8837 51.7099 36.5353 51.7099 36.132V34.856C51.0426 35.6187 50.1919 36 49.1579 36C48.4393 36 47.8049 35.7947 47.2549 35.384C46.7049 34.966 46.4299 34.4233 46.4299 33.756ZM53.8436 35.45V35.142C53.8436 34.9807 53.9096 34.8523 54.0416 34.757C54.1809 34.6617 54.3643 34.614 54.5916 34.614C54.7896 34.614 54.9583 34.6617 55.0976 34.757C55.2369 34.845 55.3066 34.9733 55.3066 35.142V35.45C55.3066 35.6187 55.2333 35.7543 55.0866 35.857C54.9399 35.9523 54.7713 36 54.5806 36C54.3533 36 54.1736 35.9523 54.0416 35.857C53.9096 35.7543 53.8436 35.6187 53.8436 35.45ZM56.6258 35.45V35.142C56.6258 34.9807 56.6918 34.8523 56.8238 34.757C56.9632 34.6617 57.1465 34.614 57.3738 34.614C57.5718 34.614 57.7405 34.6617 57.8798 34.757C58.0192 34.845 58.0888 34.9733 58.0888 35.142V35.45C58.0888 35.6187 58.0155 35.7543 57.8688 35.857C57.7222 35.9523 57.5535 36 57.3628 36C57.1355 36 56.9558 35.9523 56.8238 35.857C56.6918 35.7543 56.6258 35.6187 56.6258 35.45ZM59.408 35.45V35.142C59.408 34.9807 59.474 34.8523 59.606 34.757C59.7454 34.6617 59.9287 34.614 60.156 34.614C60.354 34.614 60.5227 34.6617 60.662 34.757C60.8014 34.845 60.871 34.9733 60.871 35.142V35.45C60.871 35.6187 60.7977 35.7543 60.651 35.857C60.5044 35.9523 60.3357 36 60.145 36C59.9177 36 59.738 35.9523 59.606 35.857C59.474 35.7543 59.408 35.6187 59.408 35.45Z" fill="black"/>
<path id="shops" d="M24.429 65.955C24.429 65.8597 24.4693 65.757 24.55 65.647C24.638 65.537 24.737 65.4673 24.847 65.438C24.8983 65.438 24.924 65.4453 24.924 65.46C25.1587 65.7167 25.496 65.9183 25.936 66.065C26.376 66.2043 26.7207 66.285 26.97 66.307C27.2267 66.329 27.465 66.34 27.685 66.34C28.6383 66.34 29.115 66.0503 29.115 65.471C29.115 65.273 29.0417 65.1153 28.895 64.998C28.7557 64.8733 28.5613 64.789 28.312 64.745C28.07 64.701 27.8243 64.6717 27.575 64.657C27.3257 64.6423 27.0543 64.6313 26.761 64.624C26.4677 64.6093 26.244 64.5873 26.09 64.558C25.672 64.4773 25.3017 64.3087 24.979 64.052C24.6563 63.788 24.495 63.48 24.495 63.128C24.495 62.5707 24.7737 62.1453 25.331 61.852C25.8957 61.5513 26.5153 61.401 27.19 61.401C27.6447 61.401 28.1323 61.4817 28.653 61.643C29.1737 61.797 29.5623 62.039 29.819 62.369C29.8263 62.3837 29.83 62.402 29.83 62.424C29.83 62.5193 29.786 62.633 29.698 62.765C29.61 62.8897 29.5257 62.952 29.445 62.952C29.3717 62.952 29.2983 62.8933 29.225 62.776C28.873 62.402 28.1727 62.215 27.124 62.215C26.6913 62.215 26.2807 62.2883 25.892 62.435C25.5033 62.5817 25.309 62.798 25.309 63.084C25.309 63.326 25.4777 63.5093 25.815 63.634C26.1523 63.7513 26.5117 63.81 26.893 63.81C27.1643 63.81 27.3917 63.8137 27.575 63.821C27.7583 63.8283 27.982 63.8503 28.246 63.887C28.51 63.9163 28.73 63.9713 28.906 64.052C29.082 64.1253 29.2543 64.2243 29.423 64.349C29.5917 64.4663 29.7163 64.6277 29.797 64.833C29.885 65.031 29.929 65.2657 29.929 65.537C29.929 65.911 29.8117 66.2263 29.577 66.483C29.3497 66.7323 29.0857 66.9047 28.785 67C28.4917 67.1027 28.18 67.154 27.85 67.154C26.3027 67.154 25.188 66.824 24.506 66.164C24.4547 66.1127 24.429 66.043 24.429 65.955ZM31.0301 66.714V59.036C31.0301 58.9407 31.0668 58.8673 31.1401 58.816C31.2208 58.7647 31.3161 58.739 31.4261 58.739C31.7048 58.739 31.8441 58.838 31.8441 59.036V62.688C32.2035 62.3067 32.6435 62.006 33.1641 61.786C33.6848 61.566 34.2165 61.456 34.7591 61.456C35.4558 61.456 36.0351 61.6613 36.4971 62.072C36.9591 62.4753 37.1901 63.018 37.1901 63.7C37.1901 63.766 37.1865 64.1033 37.1791 64.712C37.1791 65.3133 37.1791 65.9733 37.1791 66.692C37.1791 66.7873 37.1388 66.8643 37.0581 66.923C36.9775 66.9743 36.8821 67 36.7721 67C36.5008 67 36.3651 66.8973 36.3651 66.692V63.799C36.3651 63.4397 36.2625 63.139 36.0571 62.897C35.8591 62.6477 35.6391 62.479 35.3971 62.391C35.1551 62.303 34.9095 62.259 34.6601 62.259C34.1175 62.259 33.5638 62.4277 32.9991 62.765C32.4418 63.1023 32.0568 63.535 31.8441 64.063V66.714C31.8441 66.912 31.7048 67.011 31.4261 67.011C31.3161 67.011 31.2208 66.9853 31.1401 66.934C31.0668 66.8827 31.0301 66.8093 31.0301 66.714ZM38.1895 64.272C38.1895 63.6413 38.3545 63.0987 38.6845 62.644C39.0218 62.182 39.4252 61.8483 39.8945 61.643C40.3712 61.4377 40.8698 61.335 41.3905 61.335C42.1238 61.335 42.7985 61.6137 43.4145 62.171C44.0378 62.721 44.3495 63.4177 44.3495 64.261C44.3495 65.0603 44.0745 65.746 43.5245 66.318C42.9745 66.8827 42.2558 67.165 41.3685 67.165C40.4958 67.165 39.7478 66.8827 39.1245 66.318C38.5012 65.746 38.1895 65.064 38.1895 64.272ZM39.0035 64.283C39.0035 64.8037 39.2418 65.2803 39.7185 65.713C40.1952 66.1383 40.7488 66.351 41.3795 66.351C41.9735 66.351 42.4795 66.1347 42.8975 65.702C43.3228 65.2693 43.5355 64.789 43.5355 64.261C43.5355 63.7477 43.3338 63.2673 42.9305 62.82C42.5272 62.3727 42.0065 62.149 41.3685 62.149C40.6205 62.149 40.0375 62.3763 39.6195 62.831C39.2088 63.2857 39.0035 63.7697 39.0035 64.283ZM45.4246 69.453V61.808C45.4246 61.7127 45.465 61.6393 45.5456 61.588C45.6263 61.5293 45.7216 61.5 45.8316 61.5C46.103 61.5 46.2386 61.6027 46.2386 61.808V63.007C46.9353 61.9437 47.9656 61.412 49.3296 61.412C49.953 61.412 50.481 61.621 50.9136 62.039C51.3536 62.4497 51.5736 62.9337 51.5736 63.491C51.5736 64.1437 51.394 64.745 51.0346 65.295C50.6753 65.8377 50.206 66.2593 49.6266 66.56C49.0546 66.8607 48.4533 67.011 47.8226 67.011C47.214 67.011 46.686 66.8093 46.2386 66.406V69.453C46.2386 69.651 46.0993 69.75 45.8206 69.75C45.7106 69.75 45.6153 69.7243 45.5346 69.673C45.4613 69.6217 45.4246 69.5483 45.4246 69.453ZM46.2276 64.833C46.2276 65.2803 46.4036 65.6177 46.7556 65.845C47.115 66.0723 47.4706 66.186 47.8226 66.186C48.248 66.186 48.6806 66.0833 49.1206 65.878C49.5606 65.6727 49.9346 65.3683 50.2426 64.965C50.558 64.5543 50.7156 64.107 50.7156 63.623C50.7156 63.1243 50.558 62.765 50.2426 62.545C49.9346 62.325 49.5606 62.215 49.1206 62.215C48.71 62.215 48.2736 62.3543 47.8116 62.633C47.357 62.9043 46.9793 63.249 46.6786 63.667C46.378 64.0777 46.2276 64.4663 46.2276 64.833ZM52.4231 65.955C52.4231 65.8597 52.4635 65.757 52.5441 65.647C52.6321 65.537 52.7311 65.4673 52.8411 65.438C52.8925 65.438 52.9181 65.4453 52.9181 65.46C53.1528 65.7167 53.4901 65.9183 53.9301 66.065C54.3701 66.2043 54.7148 66.285 54.9641 66.307C55.2208 66.329 55.4591 66.34 55.6791 66.34C56.6325 66.34 57.1091 66.0503 57.1091 65.471C57.1091 65.273 57.0358 65.1153 56.8891 64.998C56.7498 64.8733 56.5555 64.789 56.3061 64.745C56.0641 64.701 55.8185 64.6717 55.5691 64.657C55.3198 64.6423 55.0485 64.6313 54.7551 64.624C54.4618 64.6093 54.2381 64.5873 54.0841 64.558C53.6661 64.4773 53.2958 64.3087 52.9731 64.052C52.6505 63.788 52.4891 63.48 52.4891 63.128C52.4891 62.5707 52.7678 62.1453 53.3251 61.852C53.8898 61.5513 54.5095 61.401 55.1841 61.401C55.6388 61.401 56.1265 61.4817 56.6471 61.643C57.1678 61.797 57.5565 62.039 57.8131 62.369C57.8205 62.3837 57.8241 62.402 57.8241 62.424C57.8241 62.5193 57.7801 62.633 57.6921 62.765C57.6041 62.8897 57.5198 62.952 57.4391 62.952C57.3658 62.952 57.2925 62.8933 57.2191 62.776C56.8671 62.402 56.1668 62.215 55.1181 62.215C54.6855 62.215 54.2748 62.2883 53.8861 62.435C53.4975 62.5817 53.3031 62.798 53.3031 63.084C53.3031 63.326 53.4718 63.5093 53.8091 63.634C54.1465 63.7513 54.5058 63.81 54.8871 63.81C55.1585 63.81 55.3858 63.8137 55.5691 63.821C55.7525 63.8283 55.9761 63.8503 56.2401 63.887C56.5041 63.9163 56.7241 63.9713 56.9001 64.052C57.0761 64.1253 57.2485 64.2243 57.4171 64.349C57.5858 64.4663 57.7105 64.6277 57.7911 64.833C57.8791 65.031 57.9231 65.2657 57.9231 65.537C57.9231 65.911 57.8058 66.2263 57.5711 66.483C57.3438 66.7323 57.0798 66.9047 56.7791 67C56.4858 67.1027 56.1741 67.154 55.8441 67.154C54.2968 67.154 53.1821 66.824 52.5001 66.164C52.4488 66.1127 52.4231 66.043 52.4231 65.955Z" fill="black"/>
<path id="shop" d="M76 63C76 71.2843 61.2254 78 43 78C24.7746 78 10 71.2843 10 63C10 54.7157 24.7746 48 43 48C61.2254 48 76 54.7157 76 63Z" fill="#00A166" fill-opacity="0.51"/>
</g>
</svg>
