<svg width="853" height="207" viewBox="0 0 853 207" fill="none" xmlns="http://www.w3.org/2000/svg">
<g id="MapOverview">
<g id="district_line">
<path id="path645" d="M3 203.834C51.8515 202.648 117.801 190.948 166.122 185.517" stroke="#00A166" stroke-width="4.5" stroke-linecap="round"/>
<path id="path647" d="M166.122 185.516C214.442 180.085 252.036 178.043 292.923 171.243" stroke="#00A166" stroke-width="4.5" stroke-linecap="round"/>
<path id="path649" d="M292.923 171.243C333.809 164.444 357.492 158.144 411.441 144.72" stroke="#00A166" stroke-width="4.5" stroke-linecap="round"/>
<path id="path651" d="M411.441 144.72C465.39 131.296 560.438 107.015 616.617 90.6997" stroke="#00A166" stroke-width="4.5" stroke-linecap="round"/>
<path id="path651_2" d="M17 26C38.5 26 52 26 75.5 26" stroke="#00A166" stroke-width="4.5" stroke-linecap="round"/>
<path id="path653" d="M616.617 90.6998C672.796 74.3849 709.647 61.4472 748.516 46.8306" stroke="#00A166" stroke-width="4.5" stroke-linecap="round"/>
<path id="path655" d="M748.516 46.8304C787.385 32.2138 815.209 11.6598 849.83 3" stroke="#00A166" stroke-width="4.5" stroke-linecap="round"/>
</g>
<path id="line1041" d="M166.124 185.514L166.684 190.484" stroke="#00A166" stroke-width="4.5" stroke-linecap="square"/>
<path id="line1043" d="M292.924 171.244L292.104 166.314" stroke="#00A166" stroke-width="4.5" stroke-linecap="square"/>
<path id="line1053" d="M411.444 144.724L412.644 149.574" stroke="#00A166" stroke-width="4.5" stroke-linecap="square"/>
<path id="line1057" d="M616.614 90.7041L618.014 95.504" stroke="#00A166" stroke-width="4.5" stroke-linecap="square"/>
<path id="line1073" d="M748.514 46.834L750.274 51.5139" stroke="#00A166" stroke-width="4.5" stroke-linecap="square"/>
<path id="becontree" d="M140.862 199.514V191.694H143.418C144.267 191.694 144.904 191.869 145.331 192.22C145.76 192.571 145.975 193.09 145.975 193.778C145.975 194.143 145.871 194.467 145.664 194.75C145.456 195.029 145.173 195.246 144.815 195.4C145.237 195.518 145.57 195.744 145.814 196.077C146.061 196.406 146.185 196.8 146.185 197.258C146.185 197.96 145.957 198.512 145.502 198.913C145.048 199.314 144.405 199.514 143.574 199.514H140.862ZM141.893 195.856V198.671H143.596C144.076 198.671 144.453 198.547 144.729 198.3C145.008 198.05 145.148 197.706 145.148 197.269C145.148 196.327 144.636 195.856 143.612 195.856H141.893ZM141.893 195.029H143.451C143.902 195.029 144.262 194.917 144.53 194.691C144.802 194.465 144.938 194.159 144.938 193.772C144.938 193.343 144.813 193.031 144.562 192.838C144.312 192.641 143.931 192.542 143.418 192.542H141.893V195.029ZM149.971 199.622C149.183 199.622 148.542 199.364 148.048 198.848C147.554 198.329 147.307 197.636 147.307 196.77V196.587C147.307 196.01 147.416 195.497 147.635 195.045C147.857 194.591 148.165 194.236 148.559 193.982C148.956 193.724 149.386 193.595 149.848 193.595C150.603 193.595 151.19 193.844 151.609 194.342C152.028 194.84 152.238 195.552 152.238 196.479V196.893H148.301C148.315 197.466 148.482 197.93 148.8 198.284C149.123 198.635 149.531 198.811 150.025 198.811C150.376 198.811 150.673 198.739 150.917 198.596C151.16 198.452 151.373 198.263 151.556 198.026L152.163 198.499C151.676 199.247 150.945 199.622 149.971 199.622ZM149.848 194.412C149.447 194.412 149.11 194.558 148.838 194.852C148.566 195.142 148.397 195.55 148.333 196.077H151.244V196.001C151.215 195.497 151.079 195.106 150.836 194.831C150.592 194.551 150.263 194.412 149.848 194.412ZM155.724 198.811C156.078 198.811 156.388 198.703 156.653 198.488C156.918 198.273 157.065 198.005 157.093 197.683H158.033C158.015 198.016 157.901 198.333 157.689 198.633C157.478 198.934 157.195 199.174 156.841 199.353C156.49 199.532 156.118 199.622 155.724 199.622C154.932 199.622 154.302 199.358 153.833 198.832C153.368 198.302 153.135 197.579 153.135 196.662V196.496C153.135 195.93 153.239 195.427 153.446 194.986C153.654 194.546 153.951 194.204 154.338 193.96C154.728 193.717 155.188 193.595 155.718 193.595C156.37 193.595 156.911 193.79 157.34 194.181C157.774 194.571 158.005 195.078 158.033 195.701H157.093C157.065 195.325 156.921 195.017 156.664 194.777C156.409 194.533 156.094 194.412 155.718 194.412C155.213 194.412 154.821 194.594 154.542 194.959C154.266 195.321 154.128 195.846 154.128 196.533V196.721C154.128 197.391 154.266 197.906 154.542 198.268C154.818 198.63 155.212 198.811 155.724 198.811ZM158.887 196.555C158.887 195.985 158.998 195.473 159.22 195.019C159.446 194.564 159.757 194.213 160.155 193.966C160.556 193.719 161.012 193.595 161.524 193.595C162.316 193.595 162.955 193.869 163.442 194.417C163.932 194.965 164.178 195.694 164.178 196.603V196.673C164.178 197.239 164.069 197.747 163.85 198.198C163.635 198.646 163.326 198.995 162.921 199.246C162.52 199.496 162.058 199.622 161.535 199.622C160.747 199.622 160.108 199.348 159.618 198.8C159.131 198.252 158.887 197.527 158.887 196.625V196.555ZM159.886 196.673C159.886 197.317 160.035 197.835 160.332 198.225C160.633 198.615 161.034 198.811 161.535 198.811C162.04 198.811 162.441 198.614 162.738 198.22C163.035 197.822 163.184 197.267 163.184 196.555C163.184 195.917 163.032 195.402 162.728 195.008C162.427 194.61 162.026 194.412 161.524 194.412C161.034 194.412 160.638 194.607 160.337 194.997C160.037 195.387 159.886 195.946 159.886 196.673ZM166.364 193.703L166.396 194.433C166.84 193.875 167.42 193.595 168.136 193.595C169.364 193.595 169.984 194.288 169.995 195.674V199.514H169.001V195.668C168.997 195.25 168.901 194.94 168.711 194.739C168.525 194.539 168.233 194.438 167.835 194.438C167.513 194.438 167.23 194.524 166.987 194.696C166.743 194.868 166.554 195.094 166.417 195.373V199.514H165.424V193.703H166.364ZM172.841 192.295V193.703H173.926V194.471H172.841V198.075C172.841 198.307 172.89 198.483 172.986 198.601C173.083 198.716 173.248 198.773 173.48 198.773C173.595 198.773 173.753 198.751 173.953 198.708V199.514C173.692 199.586 173.438 199.622 173.19 199.622C172.746 199.622 172.412 199.487 172.186 199.219C171.96 198.95 171.848 198.569 171.848 198.075V194.471H170.79V193.703H171.848V192.295H172.841ZM177.901 194.594C177.75 194.569 177.588 194.557 177.412 194.557C176.76 194.557 176.318 194.834 176.085 195.389V199.514H175.092V193.703H176.059L176.075 194.374C176.401 193.855 176.862 193.595 177.46 193.595C177.654 193.595 177.801 193.62 177.901 193.67V194.594ZM181.124 199.622C180.336 199.622 179.695 199.364 179.201 198.848C178.707 198.329 178.459 197.636 178.459 196.77V196.587C178.459 196.01 178.569 195.497 178.787 195.045C179.009 194.591 179.317 194.236 179.711 193.982C180.108 193.724 180.538 193.595 181 193.595C181.756 193.595 182.343 193.844 182.762 194.342C183.181 194.84 183.39 195.552 183.39 196.479V196.893H179.453C179.467 197.466 179.634 197.93 179.953 198.284C180.275 198.635 180.683 198.811 181.177 198.811C181.528 198.811 181.825 198.739 182.069 198.596C182.312 198.452 182.525 198.263 182.708 198.026L183.315 198.499C182.828 199.247 182.097 199.622 181.124 199.622ZM181 194.412C180.599 194.412 180.262 194.558 179.99 194.852C179.718 195.142 179.55 195.55 179.485 196.077H182.396V196.001C182.368 195.497 182.232 195.106 181.988 194.831C181.745 194.551 181.415 194.412 181 194.412ZM186.957 199.622C186.169 199.622 185.528 199.364 185.034 198.848C184.54 198.329 184.292 197.636 184.292 196.77V196.587C184.292 196.01 184.402 195.497 184.62 195.045C184.842 194.591 185.15 194.236 185.544 193.982C185.941 193.724 186.371 193.595 186.833 193.595C187.589 193.595 188.176 193.844 188.595 194.342C189.014 194.84 189.223 195.552 189.223 196.479V196.893H185.286C185.3 197.466 185.467 197.93 185.786 198.284C186.108 198.635 186.516 198.811 187.01 198.811C187.361 198.811 187.658 198.739 187.902 198.596C188.145 198.452 188.358 198.263 188.541 198.026L189.148 198.499C188.661 199.247 187.931 199.622 186.957 199.622ZM186.833 194.412C186.432 194.412 186.095 194.558 185.823 194.852C185.551 195.142 185.383 195.55 185.318 196.077H188.229V196.001C188.201 195.497 188.065 195.106 187.821 194.831C187.578 194.551 187.248 194.412 186.833 194.412Z" fill="black"/>
<path id="dagenham_heathway" d="M241.202 140.464V132.644H243.409C244.09 132.644 244.691 132.794 245.214 133.095C245.737 133.396 246.139 133.823 246.422 134.378C246.709 134.933 246.854 135.571 246.857 136.291V136.79C246.857 137.528 246.714 138.174 246.428 138.729C246.145 139.284 245.738 139.71 245.208 140.007C244.682 140.305 244.068 140.457 243.366 140.464H241.202ZM242.233 133.492V139.621H243.318C244.113 139.621 244.73 139.374 245.171 138.879C245.615 138.385 245.837 137.682 245.837 136.769V136.312C245.837 135.424 245.627 134.735 245.208 134.244C244.793 133.75 244.202 133.499 243.436 133.492H242.233ZM251.853 140.464C251.795 140.349 251.749 140.145 251.713 139.852C251.251 140.331 250.7 140.571 250.059 140.571C249.486 140.571 249.015 140.41 248.646 140.088C248.281 139.762 248.098 139.35 248.098 138.853C248.098 138.247 248.327 137.778 248.786 137.445C249.248 137.109 249.896 136.94 250.73 136.94H251.697V136.484C251.697 136.137 251.593 135.861 251.385 135.657C251.178 135.449 250.871 135.345 250.467 135.345C250.112 135.345 249.815 135.435 249.575 135.614C249.335 135.793 249.215 136.009 249.215 136.264H248.216C248.216 135.974 248.318 135.694 248.522 135.426C248.73 135.154 249.009 134.939 249.36 134.781C249.715 134.624 250.103 134.545 250.526 134.545C251.195 134.545 251.72 134.713 252.1 135.05C252.479 135.383 252.676 135.843 252.69 136.43V139.105C252.69 139.639 252.758 140.063 252.895 140.378V140.464H251.853ZM250.204 139.707C250.515 139.707 250.811 139.626 251.09 139.465C251.369 139.304 251.571 139.094 251.697 138.836V137.644H250.918C249.701 137.644 249.092 138 249.092 138.713C249.092 139.024 249.196 139.268 249.403 139.443C249.611 139.619 249.878 139.707 250.204 139.707ZM254.012 137.51C254.012 136.604 254.221 135.884 254.64 135.351C255.059 134.813 255.614 134.545 256.305 134.545C257.014 134.545 257.567 134.796 257.965 135.297L258.013 134.652H258.921V140.324C258.921 141.076 258.697 141.669 258.25 142.102C257.806 142.535 257.208 142.752 256.456 142.752C256.037 142.752 255.627 142.662 255.226 142.483C254.825 142.304 254.518 142.059 254.307 141.748L254.823 141.151C255.249 141.678 255.77 141.941 256.386 141.941C256.869 141.941 257.245 141.805 257.514 141.533C257.786 141.261 257.922 140.877 257.922 140.383V139.884C257.524 140.342 256.982 140.571 256.294 140.571C255.614 140.571 255.063 140.297 254.64 139.75C254.221 139.202 254.012 138.455 254.012 137.51ZM255.011 137.623C255.011 138.278 255.145 138.793 255.414 139.169C255.682 139.542 256.058 139.728 256.542 139.728C257.168 139.728 257.628 139.443 257.922 138.874V136.221C257.618 135.666 257.161 135.388 256.552 135.388C256.069 135.388 255.691 135.576 255.419 135.952C255.147 136.328 255.011 136.885 255.011 137.623ZM262.836 140.571C262.049 140.571 261.408 140.313 260.914 139.798C260.419 139.279 260.172 138.586 260.172 137.719V137.537C260.172 136.96 260.282 136.446 260.5 135.995C260.722 135.54 261.03 135.186 261.424 134.932C261.821 134.674 262.251 134.545 262.713 134.545C263.468 134.545 264.056 134.794 264.475 135.292C264.894 135.789 265.103 136.502 265.103 137.429V137.843H261.166C261.18 138.416 261.347 138.879 261.666 139.234C261.988 139.585 262.396 139.76 262.89 139.76C263.241 139.76 263.538 139.689 263.782 139.545C264.025 139.402 264.238 139.212 264.421 138.976L265.028 139.449C264.541 140.197 263.81 140.571 262.836 140.571ZM262.713 135.361C262.312 135.361 261.975 135.508 261.703 135.802C261.431 136.092 261.263 136.5 261.198 137.026H264.109V136.951C264.081 136.446 263.945 136.056 263.701 135.78C263.458 135.501 263.128 135.361 262.713 135.361ZM267.198 134.652L267.23 135.383C267.674 134.824 268.254 134.545 268.97 134.545C270.198 134.545 270.818 135.238 270.829 136.624V140.464H269.835V136.618C269.831 136.199 269.735 135.889 269.545 135.689C269.359 135.488 269.067 135.388 268.669 135.388C268.347 135.388 268.064 135.474 267.821 135.646C267.577 135.818 267.388 136.043 267.251 136.323V140.464H266.258V134.652H267.198ZM273.321 135.356C273.761 134.815 274.334 134.545 275.04 134.545C276.268 134.545 276.887 135.238 276.898 136.624V140.464H275.904V136.618C275.901 136.199 275.804 135.889 275.614 135.689C275.428 135.488 275.136 135.388 274.739 135.388C274.417 135.388 274.134 135.474 273.89 135.646C273.647 135.818 273.457 136.043 273.321 136.323V140.464H272.327V132.214H273.321V135.356ZM281.974 140.464C281.916 140.349 281.87 140.145 281.834 139.852C281.372 140.331 280.821 140.571 280.18 140.571C279.607 140.571 279.136 140.41 278.767 140.088C278.402 139.762 278.219 139.35 278.219 138.853C278.219 138.247 278.448 137.778 278.907 137.445C279.369 137.109 280.017 136.94 280.851 136.94H281.818V136.484C281.818 136.137 281.714 135.861 281.506 135.657C281.299 135.449 280.993 135.345 280.588 135.345C280.233 135.345 279.936 135.435 279.696 135.614C279.456 135.793 279.336 136.009 279.336 136.264H278.337C278.337 135.974 278.439 135.694 278.644 135.426C278.851 135.154 279.131 134.939 279.481 134.781C279.836 134.624 280.224 134.545 280.647 134.545C281.317 134.545 281.841 134.713 282.221 135.05C282.6 135.383 282.797 135.843 282.812 136.43V139.105C282.812 139.639 282.88 140.063 283.016 140.378V140.464H281.974ZM280.325 139.707C280.636 139.707 280.932 139.626 281.211 139.465C281.49 139.304 281.693 139.094 281.818 138.836V137.644H281.039C279.822 137.644 279.213 138 279.213 138.713C279.213 139.024 279.317 139.268 279.524 139.443C279.732 139.619 279.999 139.707 280.325 139.707ZM285.304 134.652L285.331 135.297C285.757 134.796 286.331 134.545 287.055 134.545C287.868 134.545 288.421 134.856 288.714 135.479C288.908 135.2 289.158 134.975 289.466 134.803C289.778 134.631 290.145 134.545 290.567 134.545C291.842 134.545 292.49 135.22 292.512 136.57V140.464H291.518V136.629C291.518 136.214 291.423 135.904 291.233 135.7C291.044 135.492 290.725 135.388 290.277 135.388C289.909 135.388 289.602 135.499 289.359 135.721C289.115 135.94 288.974 136.235 288.935 136.607V140.464H287.936V136.656C287.936 135.811 287.522 135.388 286.695 135.388C286.043 135.388 285.597 135.666 285.357 136.221V140.464H284.364V134.652H285.304ZM300.182 140.464H299.145V136.849H295.203V140.464H294.171V132.644H295.203V136.006H299.145V132.644H300.182V140.464ZM304.269 140.571C303.481 140.571 302.84 140.313 302.346 139.798C301.852 139.279 301.605 138.586 301.605 137.719V137.537C301.605 136.96 301.714 136.446 301.933 135.995C302.155 135.54 302.463 135.186 302.856 134.932C303.254 134.674 303.684 134.545 304.146 134.545C304.901 134.545 305.488 134.794 305.907 135.292C306.326 135.789 306.536 136.502 306.536 137.429V137.843H302.599C302.613 138.416 302.779 138.879 303.098 139.234C303.42 139.585 303.829 139.76 304.323 139.76C304.674 139.76 304.971 139.689 305.214 139.545C305.458 139.402 305.671 139.212 305.854 138.976L306.46 139.449C305.973 140.197 305.243 140.571 304.269 140.571ZM304.146 135.361C303.744 135.361 303.408 135.508 303.136 135.802C302.864 136.092 302.695 136.5 302.631 137.026H305.542V136.951C305.513 136.446 305.377 136.056 305.134 135.78C304.89 135.501 304.561 135.361 304.146 135.361ZM311.278 140.464C311.221 140.349 311.174 140.145 311.139 139.852C310.677 140.331 310.125 140.571 309.484 140.571C308.911 140.571 308.441 140.41 308.072 140.088C307.707 139.762 307.524 139.35 307.524 138.853C307.524 138.247 307.753 137.778 308.211 137.445C308.673 137.109 309.321 136.94 310.156 136.94H311.123V136.484C311.123 136.137 311.019 135.861 310.811 135.657C310.603 135.449 310.297 135.345 309.893 135.345C309.538 135.345 309.241 135.435 309.001 135.614C308.761 135.793 308.641 136.009 308.641 136.264H307.642C307.642 135.974 307.744 135.694 307.948 135.426C308.156 135.154 308.435 134.939 308.786 134.781C309.141 134.624 309.529 134.545 309.952 134.545C310.621 134.545 311.146 134.713 311.525 135.05C311.905 135.383 312.102 135.843 312.116 136.43V139.105C312.116 139.639 312.184 140.063 312.32 140.378V140.464H311.278ZM309.629 139.707C309.941 139.707 310.236 139.626 310.516 139.465C310.795 139.304 310.997 139.094 311.123 138.836V137.644H310.344C309.126 137.644 308.518 138 308.518 138.713C308.518 139.024 308.621 139.268 308.829 139.443C309.037 139.619 309.304 139.707 309.629 139.707ZM315.022 133.245V134.652H316.107V135.42H315.022V139.024C315.022 139.257 315.07 139.433 315.167 139.551C315.264 139.665 315.428 139.723 315.661 139.723C315.776 139.723 315.933 139.701 316.134 139.658V140.464C315.872 140.535 315.618 140.571 315.371 140.571C314.927 140.571 314.592 140.437 314.367 140.168C314.141 139.9 314.028 139.519 314.028 139.024V135.42H312.97V134.652H314.028V133.245H315.022ZM318.266 135.356C318.707 134.815 319.279 134.545 319.985 134.545C321.213 134.545 321.833 135.238 321.843 136.624V140.464H320.85V136.618C320.846 136.199 320.749 135.889 320.56 135.689C320.373 135.488 320.082 135.388 319.684 135.388C319.362 135.388 319.079 135.474 318.835 135.646C318.592 135.818 318.402 136.043 318.266 136.323V140.464H317.272V132.214H318.266V135.356ZM328.477 139.094L329.594 134.652H330.587L328.896 140.464H328.09L326.677 136.06L325.302 140.464H324.497L322.81 134.652H323.798L324.942 139.003L326.296 134.652H327.096L328.477 139.094ZM335.19 140.464C335.133 140.349 335.087 140.145 335.051 139.852C334.589 140.331 334.037 140.571 333.396 140.571C332.824 140.571 332.353 140.41 331.984 140.088C331.619 139.762 331.436 139.35 331.436 138.853C331.436 138.247 331.665 137.778 332.124 137.445C332.585 137.109 333.234 136.94 334.068 136.94H335.035V136.484C335.035 136.137 334.931 135.861 334.723 135.657C334.515 135.449 334.209 135.345 333.805 135.345C333.45 135.345 333.153 135.435 332.913 135.614C332.673 135.793 332.553 136.009 332.553 136.264H331.554C331.554 135.974 331.656 135.694 331.86 135.426C332.068 135.154 332.347 134.939 332.698 134.781C333.053 134.624 333.441 134.545 333.864 134.545C334.533 134.545 335.058 134.713 335.438 135.05C335.817 135.383 336.014 135.843 336.028 136.43V139.105C336.028 139.639 336.096 140.063 336.232 140.378V140.464H335.19ZM333.542 139.707C333.853 139.707 334.148 139.626 334.428 139.465C334.707 139.304 334.909 139.094 335.035 138.836V137.644H334.256C333.038 137.644 332.43 138 332.43 138.713C332.43 139.024 332.534 139.268 332.741 139.443C332.949 139.619 333.216 139.707 333.542 139.707ZM339.401 139.008L340.755 134.652H341.818L339.482 141.361C339.12 142.328 338.546 142.811 337.758 142.811L337.57 142.795L337.199 142.725V141.919L337.468 141.941C337.804 141.941 338.066 141.873 338.252 141.737C338.442 141.601 338.597 141.352 338.719 140.99L338.939 140.399L336.866 134.652H337.951L339.401 139.008Z" fill="black"/>
<path id="dagenham_heathway_2" d="M82.334 29V21.1797H84.5415C85.2218 21.1797 85.8234 21.3301 86.3462 21.6309C86.869 21.9316 87.2718 22.3595 87.5547 22.9146C87.8411 23.4696 87.9862 24.1069 87.9897 24.8267V25.3262C87.9897 26.0638 87.8465 26.7101 87.5601 27.2651C87.2772 27.8201 86.8708 28.2463 86.3408 28.5435C85.8145 28.8407 85.2004 28.9928 84.4985 29H82.334ZM83.3652 22.0283V28.1567H84.4502C85.2451 28.1567 85.8628 27.9097 86.3032 27.4155C86.7472 26.9214 86.9692 26.2178 86.9692 25.3047V24.8481C86.9692 23.9601 86.7598 23.2708 86.3408 22.7803C85.9255 22.2861 85.3346 22.0355 84.5684 22.0283H83.3652ZM90.4766 29H89.4829V23.1885H90.4766V29ZM89.4023 21.647C89.4023 21.4858 89.4507 21.3498 89.5474 21.2388C89.6476 21.1278 89.7944 21.0723 89.9878 21.0723C90.1812 21.0723 90.328 21.1278 90.4282 21.2388C90.5285 21.3498 90.5786 21.4858 90.5786 21.647C90.5786 21.8081 90.5285 21.9424 90.4282 22.0498C90.328 22.1572 90.1812 22.2109 89.9878 22.2109C89.7944 22.2109 89.6476 22.1572 89.5474 22.0498C89.4507 21.9424 89.4023 21.8081 89.4023 21.647ZM95.4556 27.4585C95.4556 27.1899 95.3535 26.9823 95.1494 26.8354C94.9489 26.6851 94.5962 26.5562 94.0913 26.4487C93.59 26.3413 93.1908 26.2124 92.8936 26.062C92.5999 25.9116 92.3815 25.7326 92.2383 25.5249C92.0986 25.3172 92.0288 25.0701 92.0288 24.7837C92.0288 24.3075 92.2293 23.9046 92.6304 23.5752C93.035 23.2458 93.5506 23.0811 94.1772 23.0811C94.8361 23.0811 95.3696 23.2511 95.7778 23.5913C96.1896 23.9315 96.3955 24.3665 96.3955 24.8965H95.3965C95.3965 24.6243 95.2801 24.3898 95.0474 24.1929C94.8182 23.9959 94.5282 23.8975 94.1772 23.8975C93.8156 23.8975 93.5327 23.9762 93.3286 24.1338C93.1245 24.2913 93.0225 24.4972 93.0225 24.7515C93.0225 24.9914 93.1174 25.1722 93.3071 25.2939C93.4969 25.4157 93.8389 25.5321 94.333 25.6431C94.8307 25.7541 95.2336 25.8866 95.5415 26.0405C95.8494 26.1945 96.0768 26.3807 96.2236 26.5991C96.374 26.814 96.4492 27.0771 96.4492 27.3887C96.4492 27.9079 96.2415 28.325 95.8262 28.6401C95.4108 28.9517 94.8719 29.1074 94.2095 29.1074C93.744 29.1074 93.3322 29.0251 92.9741 28.8604C92.616 28.6956 92.335 28.4665 92.1309 28.1729C91.9303 27.8757 91.8301 27.5552 91.8301 27.2114H92.8237C92.8416 27.5444 92.9741 27.8094 93.2212 28.0063C93.4718 28.1997 93.8013 28.2964 94.2095 28.2964C94.5854 28.2964 94.8862 28.2212 95.1118 28.0708C95.341 27.9168 95.4556 27.7127 95.4556 27.4585ZM99.0918 21.7812V23.1885H100.177V23.9565H99.0918V27.5605C99.0918 27.7933 99.1401 27.9688 99.2368 28.0869C99.3335 28.2015 99.4982 28.2588 99.731 28.2588C99.8455 28.2588 100.003 28.2373 100.204 28.1943V29C99.9422 29.0716 99.688 29.1074 99.4409 29.1074C98.9969 29.1074 98.6621 28.9731 98.4365 28.7046C98.2109 28.436 98.0981 28.0547 98.0981 27.5605V23.9565H97.04V23.1885H98.0981V21.7812H99.0918ZM104.151 24.0801C104.001 24.055 103.838 24.0425 103.663 24.0425C103.011 24.0425 102.569 24.32 102.336 24.875V29H101.342V23.1885H102.309L102.325 23.8599C102.651 23.3407 103.113 23.0811 103.711 23.0811C103.904 23.0811 104.051 23.1061 104.151 23.1562V24.0801ZM106.149 29H105.156V23.1885H106.149V29ZM105.075 21.647C105.075 21.4858 105.124 21.3498 105.22 21.2388C105.32 21.1278 105.467 21.0723 105.661 21.0723C105.854 21.0723 106.001 21.1278 106.101 21.2388C106.201 21.3498 106.251 21.4858 106.251 21.647C106.251 21.8081 106.201 21.9424 106.101 22.0498C106.001 22.1572 105.854 22.2109 105.661 22.2109C105.467 22.2109 105.32 22.1572 105.22 22.0498C105.124 21.9424 105.075 21.8081 105.075 21.647ZM110.076 28.2964C110.43 28.2964 110.74 28.189 111.005 27.9741C111.27 27.7593 111.417 27.4907 111.445 27.1685H112.385C112.367 27.5015 112.253 27.8184 112.042 28.1191C111.83 28.4199 111.547 28.6598 111.193 28.8389C110.842 29.0179 110.47 29.1074 110.076 29.1074C109.284 29.1074 108.654 28.8442 108.185 28.3179C107.72 27.7879 107.487 27.0646 107.487 26.1479V25.9814C107.487 25.4157 107.591 24.9126 107.798 24.4722C108.006 24.0317 108.303 23.6898 108.69 23.4463C109.08 23.2028 109.54 23.0811 110.07 23.0811C110.722 23.0811 111.263 23.2762 111.692 23.6665C112.126 24.0568 112.357 24.5635 112.385 25.1865H111.445C111.417 24.8105 111.273 24.5026 111.016 24.2627C110.761 24.0192 110.446 23.8975 110.07 23.8975C109.565 23.8975 109.173 24.0801 108.894 24.4453C108.618 24.807 108.48 25.3315 108.48 26.019V26.207C108.48 26.8766 108.618 27.3923 108.894 27.7539C109.17 28.1156 109.564 28.2964 110.076 28.2964ZM114.851 21.7812V23.1885H115.936V23.9565H114.851V27.5605C114.851 27.7933 114.899 27.9688 114.996 28.0869C115.092 28.2015 115.257 28.2588 115.49 28.2588C115.604 28.2588 115.762 28.2373 115.962 28.1943V29C115.701 29.0716 115.447 29.1074 115.2 29.1074C114.756 29.1074 114.421 28.9731 114.195 28.7046C113.97 28.436 113.857 28.0547 113.857 27.5605V23.9565H112.799V23.1885H113.857V21.7812H114.851ZM121.022 28.1567H124.728V29H119.985V21.1797H121.022V28.1567ZM126.828 29H125.834V23.1885H126.828V29ZM125.754 21.647C125.754 21.4858 125.802 21.3498 125.899 21.2388C125.999 21.1278 126.146 21.0723 126.339 21.0723C126.533 21.0723 126.68 21.1278 126.78 21.2388C126.88 21.3498 126.93 21.4858 126.93 21.647C126.93 21.8081 126.88 21.9424 126.78 22.0498C126.68 22.1572 126.533 22.2109 126.339 22.2109C126.146 22.2109 125.999 22.1572 125.899 22.0498C125.802 21.9424 125.754 21.8081 125.754 21.647ZM129.363 23.1885L129.396 23.9189C129.84 23.3604 130.42 23.0811 131.136 23.0811C132.364 23.0811 132.983 23.7739 132.994 25.1597V29H132V25.1543C131.997 24.7354 131.9 24.4256 131.71 24.2251C131.524 24.0246 131.232 23.9243 130.835 23.9243C130.513 23.9243 130.23 24.0103 129.986 24.1821C129.743 24.354 129.553 24.5796 129.417 24.8589V29H128.423V23.1885H129.363ZM136.904 29.1074C136.117 29.1074 135.476 28.8496 134.981 28.334C134.487 27.8148 134.24 27.1219 134.24 26.2554V26.0728C134.24 25.4963 134.349 24.9824 134.568 24.5312C134.79 24.0765 135.098 23.722 135.492 23.4678C135.889 23.21 136.319 23.0811 136.781 23.0811C137.536 23.0811 138.124 23.3299 138.542 23.8276C138.961 24.3254 139.171 25.0379 139.171 25.9653V26.3789H135.234C135.248 26.9518 135.415 27.4155 135.733 27.77C136.056 28.1209 136.464 28.2964 136.958 28.2964C137.309 28.2964 137.606 28.2248 137.85 28.0815C138.093 27.9383 138.306 27.7485 138.489 27.5122L139.096 27.9849C138.609 28.7332 137.878 29.1074 136.904 29.1074ZM136.781 23.8975C136.38 23.8975 136.043 24.0443 135.771 24.3379C135.499 24.6279 135.331 25.0361 135.266 25.5625H138.177V25.4873C138.149 24.9824 138.013 24.5921 137.769 24.3164C137.526 24.0371 137.196 23.8975 136.781 23.8975Z" fill="black"/>
<path id="dagenham_east" d="M377.252 158.534V150.714H379.459C380.14 150.714 380.741 150.864 381.264 151.165C381.787 151.466 382.19 151.894 382.473 152.449C382.759 153.004 382.904 153.641 382.908 154.361V154.86C382.908 155.598 382.764 156.244 382.478 156.799C382.195 157.354 381.789 157.78 381.259 158.078C380.732 158.375 380.118 158.527 379.417 158.534H377.252ZM378.283 151.562V157.691H379.368C380.163 157.691 380.781 157.444 381.221 156.95C381.665 156.456 381.887 155.752 381.887 154.839V154.382C381.887 153.494 381.678 152.805 381.259 152.314C380.843 151.82 380.253 151.57 379.486 151.562H378.283ZM387.903 158.534C387.846 158.42 387.799 158.215 387.763 157.922C387.301 158.402 386.75 158.642 386.109 158.642C385.536 158.642 385.065 158.48 384.696 158.158C384.331 157.832 384.148 157.421 384.148 156.923C384.148 156.318 384.378 155.849 384.836 155.516C385.298 155.179 385.946 155.011 386.78 155.011H387.747V154.554C387.747 154.207 387.643 153.931 387.436 153.727C387.228 153.519 386.922 153.416 386.517 153.416C386.163 153.416 385.865 153.505 385.625 153.684C385.386 153.863 385.266 154.08 385.266 154.334H384.267C384.267 154.044 384.369 153.765 384.573 153.496C384.78 153.224 385.06 153.009 385.411 152.852C385.765 152.694 386.154 152.615 386.576 152.615C387.246 152.615 387.77 152.784 388.15 153.12C388.529 153.453 388.726 153.913 388.741 154.5V157.175C388.741 157.709 388.809 158.133 388.945 158.448V158.534H387.903ZM386.254 157.777C386.565 157.777 386.861 157.696 387.14 157.535C387.419 157.374 387.622 157.165 387.747 156.907V155.714H386.968C385.751 155.714 385.142 156.071 385.142 156.783C385.142 157.095 385.246 157.338 385.454 157.514C385.661 157.689 385.928 157.777 386.254 157.777ZM390.062 155.58C390.062 154.674 390.271 153.954 390.69 153.421C391.109 152.884 391.664 152.615 392.355 152.615C393.064 152.615 393.618 152.866 394.015 153.367L394.063 152.723H394.971V158.395C394.971 159.146 394.747 159.739 394.3 160.172C393.856 160.606 393.258 160.822 392.506 160.822C392.087 160.822 391.677 160.733 391.276 160.554C390.875 160.375 390.569 160.129 390.357 159.818L390.873 159.222C391.299 159.748 391.82 160.011 392.436 160.011C392.919 160.011 393.295 159.875 393.564 159.603C393.836 159.331 393.972 158.948 393.972 158.454V157.954C393.575 158.412 393.032 158.642 392.345 158.642C391.664 158.642 391.113 158.368 390.69 157.82C390.271 157.272 390.062 156.525 390.062 155.58ZM391.061 155.693C391.061 156.348 391.195 156.864 391.464 157.24C391.732 157.612 392.108 157.798 392.592 157.798C393.218 157.798 393.679 157.514 393.972 156.944V154.291C393.668 153.736 393.211 153.458 392.603 153.458C392.119 153.458 391.741 153.646 391.469 154.022C391.197 154.398 391.061 154.955 391.061 155.693ZM398.887 158.642C398.099 158.642 397.458 158.384 396.964 157.868C396.47 157.349 396.223 156.656 396.223 155.79V155.607C396.223 155.03 396.332 154.517 396.55 154.065C396.772 153.611 397.08 153.256 397.474 153.002C397.872 152.744 398.301 152.615 398.763 152.615C399.519 152.615 400.106 152.864 400.525 153.362C400.944 153.86 401.153 154.572 401.153 155.5V155.913H397.216C397.231 156.486 397.397 156.95 397.716 157.304C398.038 157.655 398.446 157.831 398.94 157.831C399.291 157.831 399.589 157.759 399.832 157.616C400.076 157.472 400.289 157.283 400.471 157.046L401.078 157.519C400.591 158.267 399.861 158.642 398.887 158.642ZM398.763 153.432C398.362 153.432 398.026 153.578 397.753 153.872C397.481 154.162 397.313 154.57 397.249 155.097H400.16V155.021C400.131 154.517 399.995 154.126 399.751 153.851C399.508 153.571 399.179 153.432 398.763 153.432ZM403.248 152.723L403.28 153.453C403.724 152.895 404.304 152.615 405.021 152.615C406.249 152.615 406.868 153.308 406.879 154.694V158.534H405.885V154.688C405.882 154.27 405.785 153.96 405.595 153.759C405.409 153.559 405.117 153.458 404.72 153.458C404.397 153.458 404.115 153.544 403.871 153.716C403.628 153.888 403.438 154.114 403.302 154.393V158.534H402.308V152.723H403.248ZM409.371 153.426C409.812 152.886 410.384 152.615 411.09 152.615C412.318 152.615 412.938 153.308 412.948 154.694V158.534H411.955V154.688C411.951 154.27 411.854 153.96 411.665 153.759C411.478 153.559 411.187 153.458 410.789 153.458C410.467 153.458 410.184 153.544 409.94 153.716C409.697 153.888 409.507 154.114 409.371 154.393V158.534H408.377V150.284H409.371V153.426ZM418.024 158.534C417.967 158.42 417.92 158.215 417.884 157.922C417.422 158.402 416.871 158.642 416.23 158.642C415.657 158.642 415.186 158.48 414.817 158.158C414.452 157.832 414.27 157.421 414.27 156.923C414.27 156.318 414.499 155.849 414.957 155.516C415.419 155.179 416.067 155.011 416.901 155.011H417.868V154.554C417.868 154.207 417.764 153.931 417.557 153.727C417.349 153.519 417.043 153.416 416.638 153.416C416.284 153.416 415.986 153.505 415.747 153.684C415.507 153.863 415.387 154.08 415.387 154.334H414.388C414.388 154.044 414.49 153.765 414.694 153.496C414.902 153.224 415.181 153.009 415.532 152.852C415.886 152.694 416.275 152.615 416.697 152.615C417.367 152.615 417.891 152.784 418.271 153.12C418.651 153.453 418.847 153.913 418.862 154.5V157.175C418.862 157.709 418.93 158.133 419.066 158.448V158.534H418.024ZM416.375 157.777C416.687 157.777 416.982 157.696 417.261 157.535C417.541 157.374 417.743 157.165 417.868 156.907V155.714H417.089C415.872 155.714 415.263 156.071 415.263 156.783C415.263 157.095 415.367 157.338 415.575 157.514C415.782 157.689 416.049 157.777 416.375 157.777ZM421.354 152.723L421.381 153.367C421.807 152.866 422.382 152.615 423.105 152.615C423.918 152.615 424.471 152.927 424.765 153.55C424.958 153.271 425.209 153.045 425.517 152.873C425.828 152.701 426.195 152.615 426.618 152.615C427.892 152.615 428.541 153.29 428.562 154.64V158.534H427.568V154.699C427.568 154.284 427.473 153.974 427.284 153.77C427.094 153.562 426.775 153.458 426.328 153.458C425.959 153.458 425.653 153.569 425.409 153.792C425.166 154.01 425.024 154.305 424.985 154.678V158.534H423.986V154.726C423.986 153.881 423.572 153.458 422.745 153.458C422.093 153.458 421.648 153.736 421.408 154.291V158.534H420.414V152.723H421.354ZM434.642 154.919H431.253V157.691H435.19V158.534H430.222V150.714H435.136V151.562H431.253V154.076H434.642V154.919ZM439.906 158.534C439.848 158.42 439.802 158.215 439.766 157.922C439.304 158.402 438.753 158.642 438.112 158.642C437.539 158.642 437.068 158.48 436.699 158.158C436.334 157.832 436.151 157.421 436.151 156.923C436.151 156.318 436.381 155.849 436.839 155.516C437.301 155.179 437.949 155.011 438.783 155.011H439.75V154.554C439.75 154.207 439.646 153.931 439.438 153.727C439.231 153.519 438.925 153.416 438.52 153.416C438.166 153.416 437.868 153.505 437.628 153.684C437.389 153.863 437.269 154.08 437.269 154.334H436.27C436.27 154.044 436.372 153.765 436.576 153.496C436.783 153.224 437.063 153.009 437.414 152.852C437.768 152.694 438.157 152.615 438.579 152.615C439.249 152.615 439.773 152.784 440.153 153.12C440.532 153.453 440.729 153.913 440.744 154.5V157.175C440.744 157.709 440.812 158.133 440.948 158.448V158.534H439.906ZM438.257 157.777C438.568 157.777 438.864 157.696 439.143 157.535C439.422 157.374 439.625 157.165 439.75 156.907V155.714H438.971C437.754 155.714 437.145 156.071 437.145 156.783C437.145 157.095 437.249 157.338 437.457 157.514C437.664 157.689 437.931 157.777 438.257 157.777ZM445.685 156.993C445.685 156.724 445.583 156.516 445.379 156.37C445.178 156.219 444.826 156.09 444.321 155.983C443.819 155.875 443.42 155.747 443.123 155.596C442.829 155.446 442.611 155.267 442.468 155.059C442.328 154.851 442.258 154.604 442.258 154.318C442.258 153.842 442.459 153.439 442.86 153.109C443.264 152.78 443.78 152.615 444.407 152.615C445.066 152.615 445.599 152.785 446.007 153.125C446.419 153.466 446.625 153.901 446.625 154.431H445.626C445.626 154.159 445.51 153.924 445.277 153.727C445.048 153.53 444.758 153.432 444.407 153.432C444.045 153.432 443.762 153.51 443.558 153.668C443.354 153.826 443.252 154.031 443.252 154.286C443.252 154.526 443.347 154.706 443.537 154.828C443.726 154.95 444.068 155.066 444.562 155.177C445.06 155.288 445.463 155.421 445.771 155.575C446.079 155.729 446.306 155.915 446.453 156.133C446.604 156.348 446.679 156.611 446.679 156.923C446.679 157.442 446.471 157.859 446.056 158.174C445.64 158.486 445.101 158.642 444.439 158.642C443.973 158.642 443.562 158.559 443.204 158.395C442.846 158.23 442.564 158.001 442.36 157.707C442.16 157.41 442.06 157.089 442.06 156.746H443.053C443.071 157.079 443.204 157.344 443.451 157.541C443.701 157.734 444.031 157.831 444.439 157.831C444.815 157.831 445.116 157.755 445.341 157.605C445.57 157.451 445.685 157.247 445.685 156.993ZM449.321 151.315V152.723H450.406V153.491H449.321V157.095C449.321 157.327 449.37 157.503 449.466 157.621C449.563 157.736 449.728 157.793 449.96 157.793C450.075 157.793 450.233 157.771 450.433 157.729V158.534C450.172 158.606 449.917 158.642 449.67 158.642C449.226 158.642 448.892 158.507 448.666 158.239C448.44 157.97 448.328 157.589 448.328 157.095V153.491H447.27V152.723H448.328V151.315H449.321Z" fill="black"/>
<path id="elm_park" d="M604.442 101.089H601.053V103.861H604.99V104.704H600.022V96.8838H604.937V97.7324H601.053V100.246H604.442V101.089ZM607.198 104.704H606.204V96.4541H607.198V104.704ZM609.728 98.8926L609.754 99.5371C610.181 99.0358 610.755 98.7852 611.479 98.7852C612.291 98.7852 612.845 99.0967 613.138 99.7197C613.332 99.4404 613.582 99.2148 613.89 99.043C614.202 98.8711 614.569 98.7852 614.991 98.7852C616.266 98.7852 616.914 99.4601 616.936 100.81V104.704H615.942V100.869C615.942 100.454 615.847 100.144 615.657 99.9399C615.467 99.7323 615.149 99.6284 614.701 99.6284C614.332 99.6284 614.026 99.7394 613.783 99.9614C613.539 100.18 613.398 100.475 613.358 100.848V104.704H612.359V100.896C612.359 100.051 611.946 99.6284 611.119 99.6284C610.467 99.6284 610.021 99.9059 609.781 100.461V104.704H608.788V98.8926H609.728ZM619.626 101.643V104.704H618.595V96.8838H621.479C622.335 96.8838 623.005 97.1022 623.488 97.5391C623.975 97.9759 624.219 98.5542 624.219 99.2739C624.219 100.033 623.981 100.618 623.504 101.03C623.032 101.438 622.353 101.643 621.469 101.643H619.626ZM619.626 100.799H621.479C622.031 100.799 622.453 100.67 622.747 100.413C623.041 100.151 623.188 99.7752 623.188 99.2847C623.188 98.8192 623.041 98.4468 622.747 98.1675C622.453 97.8882 622.051 97.7432 621.539 97.7324H619.626V100.799ZM628.902 104.704C628.845 104.59 628.799 104.385 628.763 104.092C628.301 104.572 627.749 104.812 627.108 104.812C626.535 104.812 626.065 104.65 625.696 104.328C625.331 104.002 625.148 103.59 625.148 103.093C625.148 102.488 625.377 102.019 625.835 101.686C626.297 101.349 626.945 101.181 627.78 101.181H628.747V100.724C628.747 100.377 628.643 100.101 628.435 99.897C628.227 99.6893 627.921 99.5854 627.517 99.5854C627.162 99.5854 626.865 99.675 626.625 99.854C626.385 100.033 626.265 100.25 626.265 100.504H625.266C625.266 100.214 625.368 99.9346 625.572 99.666C625.78 99.3939 626.059 99.179 626.41 99.0215C626.765 98.8639 627.153 98.7852 627.576 98.7852C628.245 98.7852 628.77 98.9535 629.149 99.29C629.529 99.623 629.726 100.083 629.74 100.67V103.345C629.74 103.879 629.808 104.303 629.944 104.618V104.704H628.902ZM627.253 103.947C627.565 103.947 627.86 103.866 628.14 103.705C628.419 103.544 628.621 103.334 628.747 103.077V101.884H627.968C626.75 101.884 626.142 102.241 626.142 102.953C626.142 103.265 626.245 103.508 626.453 103.684C626.661 103.859 626.928 103.947 627.253 103.947ZM634.107 99.7842C633.957 99.7591 633.794 99.7466 633.618 99.7466C632.966 99.7466 632.524 100.024 632.292 100.579V104.704H631.298V98.8926H632.265L632.281 99.564C632.607 99.0448 633.069 98.7852 633.667 98.7852C633.86 98.7852 634.007 98.8102 634.107 98.8604V99.7842ZM636.647 102.013L636.024 102.663V104.704H635.031V96.4541H636.024V101.444L636.556 100.805L638.366 98.8926H639.575L637.313 101.32L639.838 104.704H638.672L636.647 102.013Z" fill="black"/>
<path id="hornchurch" d="M754.092 61.4941H753.055V57.8794H749.113V61.4941H748.082V53.6738H749.113V57.0361H753.055V53.6738H754.092V61.4941ZM755.504 58.5347C755.504 57.9653 755.615 57.4533 755.837 56.9985C756.063 56.5438 756.375 56.1929 756.772 55.9458C757.173 55.6987 757.63 55.5752 758.142 55.5752C758.933 55.5752 759.572 55.8491 760.059 56.397C760.55 56.9448 760.795 57.6735 760.795 58.583V58.6528C760.795 59.2186 760.686 59.7271 760.467 60.1782C760.252 60.6258 759.943 60.9749 759.538 61.2256C759.137 61.4762 758.675 61.6016 758.152 61.6016C757.365 61.6016 756.725 61.3276 756.235 60.7798C755.748 60.2319 755.504 59.5068 755.504 58.6045V58.5347ZM756.503 58.6528C756.503 59.2974 756.652 59.8148 756.949 60.2051C757.25 60.5954 757.651 60.7905 758.152 60.7905C758.657 60.7905 759.058 60.5936 759.355 60.1997C759.653 59.8022 759.801 59.2472 759.801 58.5347C759.801 57.8973 759.649 57.3817 759.345 56.9878C759.044 56.5903 758.643 56.3916 758.142 56.3916C757.651 56.3916 757.255 56.5868 756.955 56.9771C756.654 57.3674 756.503 57.9259 756.503 58.6528ZM764.85 56.5742C764.7 56.5492 764.537 56.5366 764.361 56.5366C763.71 56.5366 763.267 56.8141 763.035 57.3691V61.4941H762.041V55.6826H763.008L763.024 56.354C763.35 55.8348 763.812 55.5752 764.41 55.5752C764.603 55.5752 764.75 55.6003 764.85 55.6504V56.5742ZM766.708 55.6826L766.741 56.4131C767.185 55.8545 767.765 55.5752 768.481 55.5752C769.709 55.5752 770.329 56.2681 770.339 57.6538V61.4941H769.346V57.6484C769.342 57.2295 769.245 56.9198 769.056 56.7192C768.869 56.5187 768.578 56.4185 768.18 56.4185C767.858 56.4185 767.575 56.5044 767.332 56.6763C767.088 56.8481 766.898 57.0737 766.762 57.353V61.4941H765.769V55.6826H766.708ZM774.169 60.7905C774.523 60.7905 774.833 60.6831 775.098 60.4683C775.363 60.2534 775.51 59.9849 775.539 59.6626H776.479C776.461 59.9956 776.346 60.3125 776.135 60.6133C775.924 60.9141 775.641 61.154 775.286 61.333C774.935 61.512 774.563 61.6016 774.169 61.6016C773.378 61.6016 772.747 61.3384 772.278 60.812C771.813 60.2821 771.58 59.5588 771.58 58.6421V58.4756C771.58 57.9098 771.684 57.4067 771.892 56.9663C772.099 56.5259 772.396 56.1839 772.783 55.9404C773.174 55.6969 773.634 55.5752 774.164 55.5752C774.815 55.5752 775.356 55.7703 775.786 56.1606C776.219 56.5509 776.45 57.0576 776.479 57.6807H775.539C775.51 57.3047 775.367 56.9967 775.109 56.7568C774.855 56.5133 774.54 56.3916 774.164 56.3916C773.659 56.3916 773.267 56.5742 772.987 56.9395C772.712 57.3011 772.574 57.8257 772.574 58.5132V58.7012C772.574 59.3708 772.712 59.8864 772.987 60.248C773.263 60.6097 773.657 60.7905 774.169 60.7905ZM778.589 56.3862C779.03 55.8455 779.603 55.5752 780.308 55.5752C781.536 55.5752 782.156 56.2681 782.167 57.6538V61.4941H781.173V57.6484C781.169 57.2295 781.073 56.9198 780.883 56.7192C780.697 56.5187 780.405 56.4185 780.007 56.4185C779.685 56.4185 779.402 56.5044 779.159 56.6763C778.915 56.8481 778.725 57.0737 778.589 57.353V61.4941H777.596V53.2441H778.589V56.3862ZM787.242 60.9194C786.855 61.3742 786.288 61.6016 785.54 61.6016C784.92 61.6016 784.447 61.4225 784.122 61.0645C783.799 60.7028 783.636 60.1693 783.633 59.4639V55.6826H784.626V59.437C784.626 60.3179 784.985 60.7583 785.701 60.7583C786.46 60.7583 786.965 60.4754 787.215 59.9097V55.6826H788.209V61.4941H787.264L787.242 60.9194ZM792.533 56.5742C792.382 56.5492 792.219 56.5366 792.044 56.5366C791.392 56.5366 790.95 56.8141 790.717 57.3691V61.4941H789.724V55.6826H790.69L790.707 56.354C791.032 55.8348 791.494 55.5752 792.092 55.5752C792.286 55.5752 792.432 55.6003 792.533 55.6504V56.5742ZM795.675 60.7905C796.029 60.7905 796.339 60.6831 796.604 60.4683C796.869 60.2534 797.016 59.9849 797.044 59.6626H797.984C797.966 59.9956 797.852 60.3125 797.641 60.6133C797.429 60.9141 797.146 61.154 796.792 61.333C796.441 61.512 796.069 61.6016 795.675 61.6016C794.883 61.6016 794.253 61.3384 793.784 60.812C793.319 60.2821 793.086 59.5588 793.086 58.6421V58.4756C793.086 57.9098 793.19 57.4067 793.397 56.9663C793.605 56.5259 793.902 56.1839 794.289 55.9404C794.679 55.6969 795.139 55.5752 795.669 55.5752C796.321 55.5752 796.862 55.7703 797.292 56.1606C797.725 56.5509 797.956 57.0576 797.984 57.6807H797.044C797.016 57.3047 796.873 56.9967 796.615 56.7568C796.361 56.5133 796.045 56.3916 795.669 56.3916C795.165 56.3916 794.772 56.5742 794.493 56.9395C794.217 57.3011 794.08 57.8257 794.08 58.5132V58.7012C794.08 59.3708 794.217 59.8864 794.493 60.248C794.769 60.6097 795.163 60.7905 795.675 60.7905ZM800.095 56.3862C800.536 55.8455 801.109 55.5752 801.814 55.5752C803.042 55.5752 803.662 56.2681 803.672 57.6538V61.4941H802.679V57.6484C802.675 57.2295 802.578 56.9198 802.389 56.7192C802.202 56.5187 801.911 56.4185 801.513 56.4185C801.191 56.4185 800.908 56.5044 800.665 56.6763C800.421 56.8481 800.231 57.0737 800.095 57.353V61.4941H799.102V53.2441H800.095V56.3862Z" fill="black"/>
<path id="text3508" d="M249.307 56.4365H254.324V58.084H246.743V56.8809L251.665 49.792H246.75V48.1309H254.215V49.3066L249.307 56.4365ZM255.035 54.3174C255.035 53.5837 255.176 52.9297 255.459 52.3555C255.742 51.7812 256.147 51.3369 256.676 51.0225C257.209 50.708 257.826 50.5508 258.528 50.5508C259.526 50.5508 260.34 50.8561 260.969 51.4668C261.602 52.0775 261.955 52.9069 262.028 53.9551L262.042 54.4609C262.042 55.5957 261.725 56.5072 261.092 57.1953C260.458 57.8789 259.608 58.2207 258.542 58.2207C257.476 58.2207 256.623 57.8789 255.985 57.1953C255.352 56.5117 255.035 55.582 255.035 54.4062V54.3174ZM257.011 54.4609C257.011 55.1628 257.143 55.7005 257.407 56.0742C257.672 56.4434 258.05 56.6279 258.542 56.6279C259.021 56.6279 259.394 56.4456 259.663 56.0811C259.932 55.7119 260.066 55.124 260.066 54.3174C260.066 53.6292 259.932 53.096 259.663 52.7178C259.394 52.3395 259.016 52.1504 258.528 52.1504C258.045 52.1504 257.672 52.3395 257.407 52.7178C257.143 53.0915 257.011 53.6725 257.011 54.4609ZM265.077 50.6875L265.139 51.542C265.667 50.8812 266.376 50.5508 267.265 50.5508C268.049 50.5508 268.632 50.7809 269.015 51.2412C269.397 51.7015 269.593 52.3896 269.603 53.3057V58.084H267.627V53.3535C267.627 52.9342 267.536 52.6312 267.354 52.4443C267.171 52.2529 266.868 52.1572 266.444 52.1572C265.888 52.1572 265.471 52.3942 265.193 52.8682V58.084H263.218V50.6875H265.077ZM274.511 58.2207C273.426 58.2207 272.542 57.888 271.858 57.2227C271.179 56.5573 270.84 55.6709 270.84 54.5635V54.3721C270.84 53.6292 270.983 52.9661 271.271 52.3828C271.558 51.7949 271.963 51.3438 272.487 51.0293C273.016 50.7103 273.618 50.5508 274.292 50.5508C275.304 50.5508 276.099 50.8698 276.678 51.5078C277.261 52.1458 277.553 53.0505 277.553 54.2217V55.0283H272.843C272.907 55.5114 273.098 55.8988 273.417 56.1904C273.741 56.4821 274.148 56.6279 274.641 56.6279C275.402 56.6279 275.996 56.3522 276.425 55.8008L277.396 56.8877C277.099 57.307 276.698 57.6351 276.192 57.8721C275.687 58.1045 275.126 58.2207 274.511 58.2207ZM274.285 52.1504C273.893 52.1504 273.574 52.2826 273.328 52.5469C273.087 52.8112 272.932 53.1895 272.863 53.6816H275.611V53.5244C275.602 53.0869 275.484 52.7497 275.256 52.5127C275.028 52.2712 274.704 52.1504 274.285 52.1504ZM282.379 53.1895L282.953 48.1309H288.531V49.7783H284.573L284.327 51.918C284.797 51.6673 285.296 51.542 285.824 51.542C286.772 51.542 287.515 51.8359 288.053 52.4238C288.59 53.0117 288.859 53.8343 288.859 54.8916C288.859 55.5342 288.723 56.1107 288.449 56.6211C288.18 57.127 287.793 57.5212 287.287 57.8037C286.781 58.0817 286.184 58.2207 285.496 58.2207C284.895 58.2207 284.336 58.0999 283.821 57.8584C283.306 57.6123 282.898 57.2682 282.598 56.8262C282.301 56.3841 282.144 55.8805 282.126 55.3154H284.081C284.122 55.7301 284.266 56.0537 284.512 56.2861C284.762 56.514 285.088 56.6279 285.489 56.6279C285.936 56.6279 286.28 56.4684 286.521 56.1494C286.763 55.8258 286.884 55.3701 286.884 54.7822C286.884 54.2171 286.745 53.7842 286.467 53.4834C286.189 53.1826 285.795 53.0322 285.284 53.0322C284.815 53.0322 284.434 53.1553 284.143 53.4014L283.951 53.5791L282.379 53.1895Z" fill="black" fill-opacity="0.314"/>
<rect x="3.5" y="3.5" width="845.83" height="199.834" stroke="black"/>
</g>
</svg>
